<svg xmlns="http://www.w3.org/2000/svg" xmlns:xlink="http://www.w3.org/1999/xlink" version="1" viewBox="0 0 250 64" color-interpolation-filters="sRGB" class="el-tooltip" style="margin:auto"><g fill="#fff" class="icon-text-wrapper icon-svg-group iconsvg"><g class="iconsvg-imagesvg" transform="translate(2.686 3)" mask="url(#a)"><rect stroke="#fff" stroke-width="2" rx="30" ry="30" width="60" height="60"/><svg x="10.908" y="10.908" width="38.184" height="38.184" class="imagesvg-svg"><svg xmlns="http://www.w3.org/2000/svg" viewBox="0 0 512 512"><circle cx="214.629" cy="105.216" r="10.127" fill="#92deeb"/><circle cx="23.643" cy="210.278" r="11.817" fill="#fdca5c"/><g fill="#fff"><circle cx="98.584" cy="252.237" r="7.596"/><circle cx="247.551" cy="19.274" r="16.881"/></g><circle cx="478.232" cy="267.418" r="21.942" fill="#92deeb"/><path d="M236.584 464.317c-12.877 0-23.352-10.478-23.352-23.352s10.476-23.352 23.352-23.352c12.874 0 23.352 10.478 23.352 23.352s-10.478 23.352-23.352 23.352zm0-43.888c-11.323 0-20.534 9.216-20.534 20.534s9.211 20.534 20.534 20.534 20.534-9.216 20.534-20.534c-.001-11.318-9.211-20.534-20.534-20.534z" fill="#232e38"/><path d="M222.245 153.49c-46.61 0-84.393 37.78-84.393 84.393s37.783 84.393 84.393 84.393c46.615 0 84.398-37.78 84.398-84.393s-37.783-84.393-84.398-84.393zm0 126.587c-23.304 0-42.189-18.888-42.189-42.194s18.888-42.196 42.189-42.196c23.306 0 42.202 18.89 42.202 42.196s-18.896 42.194-42.202 42.194z" fill="#f77b55"/><circle cx="425.343" cy="440.96" r="68.641" fill="#fff"/><circle cx="98.582" cy="361.549" r="43.597" fill="#f77b55"/><circle cx="378.418" cy="81.725" r="54.016" fill="#fdca5c"/><circle cx="115.89" cy="131.533" r="26.301" fill="#fff"/><path d="M372.041 237.883c0 9.672-7.836 17.513-17.505 17.513-9.677 0-17.513-7.841-17.513-17.513 0-9.669 7.836-17.51 17.513-17.51 9.671-.001 17.505 7.841 17.505 17.51z" fill="#fdca5c"/><path d="M214.639 117.75c-6.904 0-12.521-5.617-12.521-12.521 0-6.904 5.617-12.524 12.521-12.524 6.904 0 12.521 5.619 12.521 12.524 0 6.904-5.616 12.521-12.521 12.521zm0-20.255c-4.262 0-7.734 3.469-7.734 7.734s3.469 7.731 7.734 7.731 7.734-3.466 7.734-7.731-3.471-7.734-7.734-7.734zM23.643 224.494c-7.839 0-14.211-6.374-14.211-14.211 0-7.834 6.372-14.211 14.211-14.211 7.836 0 14.211 6.377 14.211 14.211-.001 7.839-6.375 14.211-14.211 14.211zm0-23.629c-5.197 0-9.423 4.227-9.423 9.418 0 5.197 4.227 9.421 9.423 9.421 5.194 0 9.423-4.224 9.423-9.421 0-5.191-4.229-9.418-9.423-9.418zm74.941 61.358c-5.509 0-9.989-4.483-9.989-9.992 0-5.509 4.48-9.989 9.989-9.989s9.989 4.48 9.989 9.989c0 5.51-4.48 9.992-9.989 9.992zm0-15.191c-2.867 0-5.202 2.33-5.202 5.197s2.335 5.202 5.202 5.202 5.202-2.335 5.202-5.202-2.334-5.197-5.202-5.197zM247.551 38.548c-10.627 0-19.274-8.645-19.274-19.274S236.924 0 247.551 0s19.272 8.645 19.272 19.274-8.643 19.274-19.272 19.274zm0-33.756c-7.987 0-14.487 6.497-14.487 14.482s6.5 14.482 14.487 14.482c7.985 0 14.484-6.497 14.484-14.482 0-7.987-6.5-14.482-14.484-14.482z" fill="#232e38"/><circle cx="478.232" cy="267.418" r="21.942" fill="#f77b55"/><g fill="#232e38"><path d="M478.23 291.761c-13.42 0-24.338-10.918-24.338-24.338 0-13.42 10.918-24.34 24.338-24.34 13.42 0 24.338 10.921 24.338 24.34s-10.919 24.338-24.338 24.338zm0-43.884c-10.78 0-19.551 8.768-19.551 19.546 0 10.78 8.771 19.548 19.551 19.548 10.778 0 19.548-8.768 19.548-19.548-.003-10.78-8.771-19.546-19.548-19.546zM236.584 465.303c-13.422 0-24.338-10.918-24.338-24.338 0-13.417 10.916-24.338 24.338-24.338 13.42 0 24.335 10.921 24.335 24.338 0 13.42-10.916 24.338-24.335 24.338zm0-43.883c-10.778 0-19.548 8.771-19.548 19.546 0 10.78 8.771 19.551 19.548 19.551s19.548-8.771 19.548-19.551c0-10.776-8.771-19.546-19.548-19.546zm-14.339-96.751c-47.854 0-86.787-38.935-86.787-86.787 0-47.854 38.932-86.787 86.787-86.787 47.857 0 86.792 38.932 86.792 86.787 0 47.852-38.935 86.787-86.792 86.787zm0-168.783c-45.212 0-81.997 36.785-81.997 81.997s36.785 81.997 81.997 81.997c45.22 0 82.005-36.785 82.005-81.997s-36.785-81.997-82.005-81.997zm0 126.59c-24.586 0-44.585-20.001-44.585-44.593 0-24.586 20.001-44.59 44.585-44.59 24.589 0 44.595 20.001 44.595 44.59s-20.006 44.593-44.595 44.593zm0-84.393c-21.942 0-39.795 17.853-39.795 39.8s17.853 39.803 39.795 39.803c21.949 0 39.808-17.856 39.808-39.803 0-21.947-17.858-39.8-39.808-39.8zM425.332 512c-39.171 0-71.035-31.864-71.035-71.035s31.864-71.035 71.035-71.035 71.035 31.864 71.035 71.035S464.503 512 425.332 512zm0-137.277c-36.529 0-66.248 29.714-66.248 66.243s29.719 66.248 66.248 66.248 66.248-29.719 66.248-66.248-29.719-66.243-66.248-66.243zM98.584 407.547c-25.364 0-45.998-20.641-45.998-46.001 0-25.364 20.636-45.998 45.998-45.998 25.359 0 45.993 20.634 45.993 45.998.003 25.362-20.631 46.001-45.993 46.001zm0-87.207c-22.725 0-41.211 18.483-41.211 41.208 0 22.723 18.486 41.206 41.211 41.206 22.72 0 41.206-18.483 41.206-41.206 0-22.724-18.486-41.208-41.206-41.208zm279.824-182.21c-31.101 0-56.405-25.303-56.405-56.404 0-31.104 25.303-56.41 56.405-56.41s56.402 25.306 56.402 56.41c.002 31.101-25.298 56.404-56.402 56.404zm0-108.022c-28.46 0-51.617 23.155-51.617 51.62 0 28.46 23.158 51.612 51.617 51.612s51.615-23.153 51.615-51.612c.002-28.465-23.153-51.62-51.615-51.62zm-262.51 130.12c-15.823 0-28.695-12.872-28.695-28.698 0-15.823 12.872-28.698 28.695-28.698s28.695 12.874 28.695 28.698c.002 15.826-12.869 28.698-28.695 28.698zm0-52.606c-13.181 0-23.908 10.726-23.908 23.908 0 13.184 10.726 23.908 23.908 23.908s23.908-10.724 23.908-23.908c-.001-13.181-10.727-23.908-23.908-23.908zm238.638 150.167c-10.977 0-19.907-8.927-19.907-19.907 0-10.975 8.929-19.904 19.907-19.904 10.972 0 19.899 8.929 19.899 19.904.002 10.978-8.927 19.907-19.899 19.907zm0-35.02c-8.338 0-15.119 6.781-15.119 15.114 0 8.338 6.781 15.117 15.119 15.117 8.333 0 15.112-6.779 15.112-15.117.002-8.333-6.78-15.114-15.112-15.114z"/><path d="M376.823 394.857a2.387 2.387 0 0 1-1.692-.699l-94.897-94.904a2.394 2.394 0 1 1 3.384-3.387l94.897 94.904a2.392 2.392 0 0 1-1.692 4.086zM162.582 180.611a2.377 2.377 0 0 1-1.692-.701l-28.101-28.104a2.392 2.392 0 0 1 0-3.387 2.388 2.388 0 0 1 3.384 0l28.101 28.104a2.392 2.392 0 0 1 0 3.387 2.38 2.38 0 0 1-1.692.701zm119.344-.008a2.38 2.38 0 0 1-1.692-.701 2.397 2.397 0 0 1 0-3.387l58.332-58.332a2.394 2.394 0 1 1 3.384 3.387l-58.332 58.332a2.38 2.38 0 0 1-1.692.701zm55.097 59.676l-30.379-.003a2.394 2.394 0 1 1 0-4.79h30.379a2.394 2.394 0 0 1 2.394 2.396 2.395 2.395 0 0 1-2.394 2.397zM129.417 333.11a2.39 2.39 0 0 1-1.692-.701 2.388 2.388 0 0 1 0-3.384l33.155-33.157a2.394 2.394 0 1 1 3.384 3.387l-33.155 33.155c-.466.464-1.08.7-1.692.7z"/></g></svg></svg></g><path d="M100.68 12.9h6.84q1.16-1.88 1.64-2.42t.72-.54q.4 0 2.36 1.66t1.96 2.14q0 .48-.92.48h-10.32q3.48 1.12 3.48 3.24 0 1.16-.84 1.96t-2.24.8q-.64 0-1.14-.52-.5-.52-.5-1.28 0-1.76-.38-2.68-.38-.92-1.14-1.52h-.8q-1.44 1.32-3.28 2.6Q99 17.58 99 19.5q0 1.24-1.08 2.04h8.96q.36-.68.86-1.54t.66-.98q.16-.12.32-.12.32 0 1.72.96t2.18 1.62q.78.66 1.3 1.22.52.56.52.92t-.38.56q-.38.2-1.26.12-.88-.08-1.98-.08t-1.98.48q-.88.48-1.8 1.6.2.52-1.16 1v2.24q0 .68.04 1.2l.08.88q0 .24-.16.38t-1.34.44q-1.18.3-2.62.3-.32 0-.42-.12-.1-.12-.1-.48v-.68H88.68v3h13.28q.76-1.16.98-1.44.22-.28.64-.28.42 0 1.22.4t1.84 1.08q1.04.68 1.34.96.3.28.3.48 0 .44-1.04.88v4.28q0 .68.04 1.2l.08.88q0 .28-.4.5-.4.22-1.74.52-1.34.3-2.26.3-.4 0-.4-.6V41.5H88.68v2.16q0 .32-.34.52t-1.64.5q-1.3.3-2.3.3-.28 0-.24-.4.08-.88.08-5.36V28.66q0-3.24-.12-5 1.8.56 4.64 1.6h12.04l.92-1.48q.24-.36.58-.36.34 0 1.94.88 1.6.88 2.44 1.56.52-1.64.72-3H83.36q.16.6.16 1.2 0 1.56-.86 2.74-.86 1.18-2.3 1.18-1 0-1.64-.62-.64-.62-.64-1.6 0-.98 1.4-2.38t1.4-2.72q0-.84-.6-1.64-3.4 2.68-3.88 2.68-.08 0-.08-.12 0-.2.52-.72 2-1.96 4.02-5.92 2.02-3.96 2.86-7.88 1.28.2 3.1.86 1.82.66 2.52.84.7.18.7.5t-.6.54q-.6.22-1.08.7-.48.48-2.04 2.44h5.24q.36-.68.96-1.64.6-.96.76-1.08.16-.12.34-.12.18 0 1.12.68.94.68 2.26 1.92 1-2.64 1.56-5.84 4.28 1.2 5.28 1.4 1 .2 1 .54t-.54.62q-.54.28-1.14.86-.6.58-2.48 2.62zm-4.36 1.36H88q3.12 1.32 3.12 3.92 0 1.04-.74 1.66-.74.62-1.82.62t-1.58-.54q-.5-.54-.5-1.12 0-.58.16-1.16t.16-1.22q0-1.2-.84-2.16h-.68q-1.88 2.16-4.68 4.48 1.44 1.04 2.28 2.8h11.68q-.52-.72-.4-1.76.08-.52.08-1.02t-.3-.94q-.3-.44-.86-.82-.56-.38-.56-.54 0-.16.38-.16t2.14.28q.92-1.52 1.28-2.32zm-7.64 15.88h12.68v-3.56H89.6q-.36.4-.92.64v2.92zm13.88 5.64H88.68v4.4h13.88v-4.4zm29.04-23.32q0-1.68-.12-3.52 2.84.88 5 1.88h9.64q.92-2 1.48-2 .56 0 2.88 1.48t2.32 2q0 .52-1.36 1.04v11.32q0 1.16.06 2.04.06.88.06.96 0 .72-1.3 1.1-1.3.38-3.02.38-.44 0-.58-.18-.14-.18-.14-.62V27.1h-3.28v6.04h2.88q.48-.88 1-1.72t.7-1.02q.18-.18.38-.18.48 0 2.58 1.58t2.1 2.12q0 .54-1 .54h-8.64v6.76h3.8q.76-1.48 1.34-2.28.58-.8.94-.8.6 0 2.72 1.7t2.12 2.2q0 .5-1.08.5h-23.2q-.8 0-1.44.44l-1.04-1.88q.96.12 2 .12h9.4v-6.76h-6.32q-.8 0-1.44.44l-.88-1.56q-6.96 3.92-11.12 7.12-.4.32-.6.32-.2 0-.48-.56l-2-4.84q3.48-.64 5.24-1V24.06h-2.96q-.8 0-1.44.44l-1.04-1.88q.96.12 2 .12h3.44v-9.52h-2.84q-.8 0-1.44.44l-1.04-1.88q.96.12 2 .12h7.8q.92-1.84 1.28-2.3.36-.46.62-.46t.58.22q.32.22 1.54 1.24t1.9 1.86zm7.2 5.88v-6.2h-2.16q-.28.44-.88.68v5.52h3.04zm4.44 0h3.28v-6.2h-2.48q-.24.6-.8.76v5.44zm-12.28-5.12h-4.56q-.2.6-.84.84v8.68h.28q.8-1.6 1.16-2.06.36-.46.6-.46.48 0 2 1.32t2 2.04V13.1q-.2.12-.64.12zm7.84 12.56v-6.12h-3.04v6.12h3.04zm4.44 0h3.28v-6.12h-3.28v6.12zm-4.44 1.32h-3.04v.52q0 .52-.24.78t-1.16.54q-.92.28-2.24.28-.64 0-.6-.6.08-.92.08-3.36v-1.28q-.16.08-.4.08h-5.64v9.4q4.76-1.12 5.38-1.28.62-.16.86-.16t.24.12q0 .12-.6.46l-.88.5q.56.04 1.44.04h6.8V27.1zm28.68-13.44q10.12-2.08 17.16-5.44 1.24 1.12 2.68 2.9 1.44 1.78 1.44 2.2 0 .42-.3.42t-.58-.06q-.28-.06-1.24-.06-1.92 0-19.2.64-.8.68-.8 2.16t-.16 4.64h19.4q1.04-1.8 1.58-2.56t.86-.76q.56 0 2.88 1.82t2.32 2.32q0 .5-.8.5h-26.28q-.28 5.88-.48 7.88-.2 2-.82 4-.62 2-1.78 3.82-1.16 1.82-3.02 3.62t-2.62 2.38q-.76.58-.84.58-.08 0-.08-.08 0-.16.32-.6 2.12-2.76 3.16-5.54 1.04-2.78 1.34-6.24.3-3.46.3-10.12 0-6.66-.12-10.5 3.16.84 5.68 2.08zm6.24 14.52h9.24q.2-.4.7-1.26.5-.86.68-1.02.18-.16.46-.16t1.16.48q.88.48 2.16 1.32 1.28.84 1.52 1.1.24.26.24.5 0 .64-1.2.96v10.12q0 .68.04 1.2l.08.88q0 .2-.14.34t-.94.44q-.8.3-1.76.48t-1.62.18q-.66 0-.76-.12-.1-.12-.1-.48V40.5h-10.36v2.64q0 .32-.36.54-.36.22-1.64.5-1.28.28-2.4.28-.28 0-.24-.4.08-.92.08-2.96V29.86q0-1.68-.12-3.4 2.72.6 5.28 1.72zm-.6 11h10.36V29.5h-9.96q-.16.32-.4.52v9.16zM225.2 22.3q-13.36 2.32-17.34 3.08-3.98.76-5.98 1.48-.28.12-.52.12t-.4-.26q-.16-.26-.96-2.58-.8-2.32-.8-2.76 0-.76.92-.8 1.52-.12 2.38-.5.86-.38 2.52-1.94 1.66-1.56 3.74-3.84t3.3-4q1.22-1.72 2.02-3.28 3.44 1.24 4.96 1.9 1.52.66 1.88.96.36.3.36.62 0 .48-.68.48t-1.52.44q-.84.44-4.38 2.96t-8.9 6.96l18.72-.44q-1.88-3.32-5.96-5.8-.52-.32-.52-.44t.2-.12q.84 0 5.54 1.48t6.3 3.34q1.6 1.86 1.6 3.78 0 1.48-.92 2.48t-2.2 1q-1.28 0-1.98-.72t-.92-1.84q-.22-1.12-.46-1.76zm-16.56 6.96h12.04q1.08-1.84 1.38-2.26.3-.42.8-.42t1.52.52q1.02.52 2.38 1.4 1.36.88 1.74 1.24.38.36.38.64 0 .64-1.48 1.04v9.76q0 .68.04 1.2l.08.88q0 .28-.14.38-.14.1-1.04.38t-2.24.42q-1.34.14-1.82.14t-.58-.12q-.1-.12-.1-.48v-2.56h-13.24v2.28q0 .24-.12.38t-.86.36q-.74.22-2 .4-1.26.18-2.06.18-.28 0-.24-.4.08-.92.08-2.96v-10.8q0-1.68-.12-3.4 3.52.88 5.6 1.8zm-.28 10.84h13.24v-9.52h-12.36q-.32.4-.88.6v8.92zM80.764 50.65V59h-1.1V51.97L77.294 59h-1.14l-2.33-7.03h-.04q0 .5.04 1.51V59h-1.14v-8.35h1.64l2.42 7.07 2.38-7.07h1.64zm7.16 8.35l-.82-2.42h-3.37l-.87 2.42h-1.14l3.15-8.35h1.27l3.02 8.35h-1.24zm-2.51-7.12l-1.32 3.7h2.6l-1.23-3.7h-.05zm6.12-1.23l4.2 6.75v-6.75h1.09V59h-1.27l-4.25-6.75h-.04V59h-1.1v-8.35h1.37zm12.55 8.35l-.82-2.42h-3.38l-.87 2.42h-1.14l3.15-8.35h1.28l3.01 8.35h-1.23zm-2.51-7.12l-1.32 3.7h2.6l-1.23-3.7h-.05zm11 3.61h-2.56v-.96h3.65V59h-.73l-.27-1.05q-.96 1.14-2.74 1.19-1.69 0-2.6-.87-1.37-1.28-1.32-3.51.32-4.16 3.97-4.34 3.1.18 3.56 2.74h-1.1q-.45-1.74-2.51-1.78-2.6.18-2.74 3.42 0 3.47 2.79 3.47 1 0 1.73-.55.91-.73.87-2.23zm4.11 2.51h5.02v1h-6.16v-8.35h6.06v.96h-4.92v2.6h4.56v1h-4.56V58zm14.51-7.35V59h-1.1V51.97l-2.37 7.03h-1.14l-2.33-7.03h-.04q0 .5.04 1.51V59h-1.14v-8.35h1.64l2.42 7.07 2.38-7.07h1.64zm2.92 7.35h5.02v1h-6.16v-8.35h6.07v.96h-4.93v2.6h4.56v1h-4.56V58zm7.85-7.35l4.2 6.75v-6.75h1.09V59h-1.27l-4.25-6.75h-.04V59h-1.1v-8.35h1.37zm9.17.96h-2.83v-.96h6.76v.96h-2.83V59h-1.1v-7.39zm11.32-.05h-2.01v2.6h2.01q1.78.05 1.73-1.37 0-1.23-1.73-1.23zm.46 7.44h-3.61v-8.35h3.7q2.23.09 2.33 2.1 0 1.23-1.1 1.73 1.55.55 1.55 2.06-.13 2.37-2.87 2.46zm-.28-3.88h-2.19v2.92h2.42q1.74-.04 1.78-1.5 0-1.42-2.01-1.42zm9.95 3.88l-.82-2.42h-3.38l-.86 2.42h-1.14l3.14-8.35h1.28l3.01 8.35h-1.23zm-2.51-7.12l-1.32 3.7h2.6l-1.23-3.7h-.05zm11.73 1.23h-1.09q-.42-1.69-2.33-1.73-2.65.14-2.74 3.38 0 3.46 2.78 3.46 1.92-.04 2.38-2.32h1.09q-.5 3.15-3.69 3.24-3.66-.14-3.75-4.34.19-4.2 3.93-4.38 2.96.09 3.42 2.69zm3.88 1.69l-1.32 1.23V59h-1.14v-8.35h1.14v4.06l4.06-4.06h1.6l-3.52 3.38 3.61 4.97h-1.51l-2.92-4.2zm11.55.69h-2.56v-.96h3.65V59h-.73l-.27-1.05q-.96 1.14-2.74 1.19-1.69 0-2.6-.87-1.37-1.28-1.33-3.51.32-4.16 3.98-4.34 3.1.18 3.55 2.74h-1.09q-.46-1.74-2.51-1.78-2.6.18-2.74 3.42 0 3.47 2.79 3.47 1 0 1.73-.55.91-.73.87-2.23zm6.84-.1h-2.74V59h-1.14v-8.35h3.88q2.79 0 2.79 2.23 0 1.37-1.19 2.01 1 .28 1 1.6l.09 1.51q-.04.63.42.82V59h-1.42q-.14-.59-.18-2.1.04-1.51-1.51-1.51zm.09-3.83h-2.83v2.88h2.65q1.69 0 1.69-1.46 0-1.42-1.51-1.42zm10.91 3.29q-.18-3.29-2.92-3.47-2.78.14-2.92 3.47.14 3.24 2.92 3.37 2.74-.18 2.92-3.37zm1.14 0q-.27 4.15-4.06 4.29-3.83-.14-4.11-4.29.23-4.34 4.11-4.43 3.79.14 4.06 4.43zm6.85 1.05v-5.25h1.14v5.38q-.14 3.02-3.42 3.11-3.06-.09-3.2-2.92v-5.57h1.14v5.25q.05 2.28 2.1 2.32 2.24-.04 2.24-2.32zm4.24-5.25l4.2 6.75v-6.75h1.1V59h-1.28l-4.25-6.75h-.04V59h-1.1v-8.35h1.37zm10.45 8.35h-3.37v-8.35h3.42q3.38.18 3.51 4.06-.18 4.2-3.56 4.29zm-.13-7.44h-2.1v6.48h2.19q2.37-.14 2.46-3.24-.04-3.15-2.55-3.24z"/></g><mask id="a"><rect stroke="#fff" stroke-width="2" rx="30" ry="30" width="60" height="60" fill="#fff"/><svg x="10.908" y="10.908" width="38.184" height="38.184" class="imagesvg-svg"><svg xmlns="http://www.w3.org/2000/svg" viewBox="0 0 512 512"><circle cx="214.629" cy="105.216" r="10.127"/><circle cx="23.643" cy="210.278" r="11.817"/><circle cx="98.584" cy="252.237" r="7.596"/><circle cx="247.551" cy="19.274" r="16.881"/><circle cx="478.232" cy="267.418" r="21.942"/><path d="M236.584 464.317c-12.877 0-23.352-10.478-23.352-23.352s10.476-23.352 23.352-23.352c12.874 0 23.352 10.478 23.352 23.352s-10.478 23.352-23.352 23.352zm0-43.888c-11.323 0-20.534 9.216-20.534 20.534s9.211 20.534 20.534 20.534 20.534-9.216 20.534-20.534c-.001-11.318-9.211-20.534-20.534-20.534zM222.245 153.49c-46.61 0-84.393 37.78-84.393 84.393s37.783 84.393 84.393 84.393c46.615 0 84.398-37.78 84.398-84.393s-37.783-84.393-84.398-84.393zm0 126.587c-23.304 0-42.189-18.888-42.189-42.194s18.888-42.196 42.189-42.196c23.306 0 42.202 18.89 42.202 42.196s-18.896 42.194-42.202 42.194z"/><circle cx="425.343" cy="440.96" r="68.641"/><circle cx="98.582" cy="361.549" r="43.597"/><circle cx="378.418" cy="81.725" r="54.016"/><circle cx="115.89" cy="131.533" r="26.301"/><path d="M372.041 237.883c0 9.672-7.836 17.513-17.505 17.513-9.677 0-17.513-7.841-17.513-17.513 0-9.669 7.836-17.51 17.513-17.51 9.671-.001 17.505 7.841 17.505 17.51zM214.639 117.75c-6.904 0-12.521-5.617-12.521-12.521 0-6.904 5.617-12.524 12.521-12.524 6.904 0 12.521 5.619 12.521 12.524 0 6.904-5.616 12.521-12.521 12.521zm0-20.255c-4.262 0-7.734 3.469-7.734 7.734s3.469 7.731 7.734 7.731 7.734-3.466 7.734-7.731-3.471-7.734-7.734-7.734zM23.643 224.494c-7.839 0-14.211-6.374-14.211-14.211 0-7.834 6.372-14.211 14.211-14.211 7.836 0 14.211 6.377 14.211 14.211-.001 7.839-6.375 14.211-14.211 14.211zm0-23.629c-5.197 0-9.423 4.227-9.423 9.418 0 5.197 4.227 9.421 9.423 9.421 5.194 0 9.423-4.224 9.423-9.421 0-5.191-4.229-9.418-9.423-9.418zm74.941 61.358c-5.509 0-9.989-4.483-9.989-9.992 0-5.509 4.48-9.989 9.989-9.989s9.989 4.48 9.989 9.989c0 5.51-4.48 9.992-9.989 9.992zm0-15.191c-2.867 0-5.202 2.33-5.202 5.197s2.335 5.202 5.202 5.202 5.202-2.335 5.202-5.202-2.334-5.197-5.202-5.197zM247.551 38.548c-10.627 0-19.274-8.645-19.274-19.274S236.924 0 247.551 0s19.272 8.645 19.272 19.274-8.643 19.274-19.272 19.274zm0-33.756c-7.987 0-14.487 6.497-14.487 14.482s6.5 14.482 14.487 14.482c7.985 0 14.484-6.497 14.484-14.482 0-7.987-6.5-14.482-14.484-14.482z"/><circle cx="478.232" cy="267.418" r="21.942"/><path d="M478.23 291.761c-13.42 0-24.338-10.918-24.338-24.338 0-13.42 10.918-24.34 24.338-24.34 13.42 0 24.338 10.921 24.338 24.34s-10.919 24.338-24.338 24.338zm0-43.884c-10.78 0-19.551 8.768-19.551 19.546 0 10.78 8.771 19.548 19.551 19.548 10.778 0 19.548-8.768 19.548-19.548-.003-10.78-8.771-19.546-19.548-19.546zM236.584 465.303c-13.422 0-24.338-10.918-24.338-24.338 0-13.417 10.916-24.338 24.338-24.338 13.42 0 24.335 10.921 24.335 24.338 0 13.42-10.916 24.338-24.335 24.338zm0-43.883c-10.778 0-19.548 8.771-19.548 19.546 0 10.78 8.771 19.551 19.548 19.551s19.548-8.771 19.548-19.551c0-10.776-8.771-19.546-19.548-19.546zm-14.339-96.751c-47.854 0-86.787-38.935-86.787-86.787 0-47.854 38.932-86.787 86.787-86.787 47.857 0 86.792 38.932 86.792 86.787 0 47.852-38.935 86.787-86.792 86.787zm0-168.783c-45.212 0-81.997 36.785-81.997 81.997s36.785 81.997 81.997 81.997c45.22 0 82.005-36.785 82.005-81.997s-36.785-81.997-82.005-81.997zm0 126.59c-24.586 0-44.585-20.001-44.585-44.593 0-24.586 20.001-44.59 44.585-44.59 24.589 0 44.595 20.001 44.595 44.59s-20.006 44.593-44.595 44.593zm0-84.393c-21.942 0-39.795 17.853-39.795 39.8s17.853 39.803 39.795 39.803c21.949 0 39.808-17.856 39.808-39.803 0-21.947-17.858-39.8-39.808-39.8zM425.332 512c-39.171 0-71.035-31.864-71.035-71.035s31.864-71.035 71.035-71.035 71.035 31.864 71.035 71.035S464.503 512 425.332 512zm0-137.277c-36.529 0-66.248 29.714-66.248 66.243s29.719 66.248 66.248 66.248 66.248-29.719 66.248-66.248-29.719-66.243-66.248-66.243zM98.584 407.547c-25.364 0-45.998-20.641-45.998-46.001 0-25.364 20.636-45.998 45.998-45.998 25.359 0 45.993 20.634 45.993 45.998.003 25.362-20.631 46.001-45.993 46.001zm0-87.207c-22.725 0-41.211 18.483-41.211 41.208 0 22.723 18.486 41.206 41.211 41.206 22.72 0 41.206-18.483 41.206-41.206 0-22.724-18.486-41.208-41.206-41.208zm279.824-182.21c-31.101 0-56.405-25.303-56.405-56.404 0-31.104 25.303-56.41 56.405-56.41s56.402 25.306 56.402 56.41c.002 31.101-25.298 56.404-56.402 56.404zm0-108.022c-28.46 0-51.617 23.155-51.617 51.62 0 28.46 23.158 51.612 51.617 51.612s51.615-23.153 51.615-51.612c.002-28.465-23.153-51.62-51.615-51.62zm-262.51 130.12c-15.823 0-28.695-12.872-28.695-28.698 0-15.823 12.872-28.698 28.695-28.698s28.695 12.874 28.695 28.698c.002 15.826-12.869 28.698-28.695 28.698zm0-52.606c-13.181 0-23.908 10.726-23.908 23.908 0 13.184 10.726 23.908 23.908 23.908s23.908-10.724 23.908-23.908c-.001-13.181-10.727-23.908-23.908-23.908zm238.638 150.167c-10.977 0-19.907-8.927-19.907-19.907 0-10.975 8.929-19.904 19.907-19.904 10.972 0 19.899 8.929 19.899 19.904.002 10.978-8.927 19.907-19.899 19.907zm0-35.02c-8.338 0-15.119 6.781-15.119 15.114 0 8.338 6.781 15.117 15.119 15.117 8.333 0 15.112-6.779 15.112-15.117.002-8.333-6.78-15.114-15.112-15.114z"/><path d="M376.823 394.857a2.387 2.387 0 0 1-1.692-.699l-94.897-94.904a2.394 2.394 0 1 1 3.384-3.387l94.897 94.904a2.392 2.392 0 0 1-1.692 4.086zM162.582 180.611a2.377 2.377 0 0 1-1.692-.701l-28.101-28.104a2.392 2.392 0 0 1 0-3.387 2.388 2.388 0 0 1 3.384 0l28.101 28.104a2.392 2.392 0 0 1 0 3.387 2.38 2.38 0 0 1-1.692.701zm119.344-.008a2.38 2.38 0 0 1-1.692-.701 2.397 2.397 0 0 1 0-3.387l58.332-58.332a2.394 2.394 0 1 1 3.384 3.387l-58.332 58.332a2.38 2.38 0 0 1-1.692.701zm55.097 59.676l-30.379-.003a2.394 2.394 0 1 1 0-4.79h30.379a2.394 2.394 0 0 1 2.394 2.396 2.395 2.395 0 0 1-2.394 2.397zM129.417 333.11a2.39 2.39 0 0 1-1.692-.701 2.388 2.388 0 0 1 0-3.384l33.155-33.157a2.394 2.394 0 1 1 3.384 3.387l-33.155 33.155c-.466.464-1.08.7-1.692.7z"/></svg></svg></mask></svg>
